<svg xmlns="http://www.w3.org/2000/svg" width="1180" height="720" viewBox="0 0 1180 720" role="img" aria-labelledby="title desc">
  <title id="title">方案三：战棋校区</title>
  <desc id="desc">桌面战棋式局内地图，使用清晰地块、厚道路、棋子怪物和炮台，所有元素均可由代码按坐标复刻。</desc>
  <defs>
    <linearGradient id="ground3" x1="0" y1="0" x2="0" y2="1">
      <stop offset="0" stop-color="#f3ead4"/>
      <stop offset="1" stop-color="#c6b486"/>
    </linearGradient>
    <filter id="paperShadow3" x="-20%" y="-20%" width="140%" height="150%">
      <feDropShadow dx="0" dy="8" stdDeviation="4" flood-color="#5b4127" flood-opacity="0.34"/>
    </filter>
  </defs>
  <rect width="1180" height="720" fill="#362819"/>
  <rect x="26" y="24" width="1128" height="672" rx="18" fill="url(#ground3)" stroke="#72502f" stroke-width="6"/>
  <g id="tiles" opacity="0.38">
    <path d="M62 92 C210 62 340 64 470 102 C606 142 728 124 858 82 C972 44 1060 60 1126 102 L1126 654 C1010 618 890 614 758 650 C620 688 496 664 360 632 C240 604 142 618 62 650 Z" fill="#9fba72"/>
    <path d="M66 464 C188 414 300 426 426 480 C528 524 620 522 728 474 C858 418 978 430 1116 490 L1116 654 L66 654 Z" fill="#83a869" opacity="0.68"/>
    <path d="M388 192 C478 150 596 166 650 238 C704 310 674 398 588 430 C500 464 394 422 360 336 C334 270 332 220 388 192 Z" fill="#80c6d7" opacity="0.76"/>
  </g>

  <g id="roads" fill="none" stroke-linecap="round" stroke-linejoin="round">
    <g stroke="#6b4a2b" stroke-width="42" opacity="0.82">
      <polyline points="0,504 118,488 232,438 340,404 458,386 540,354 596,318"/>
      <polyline points="0,285 132,270 252,242 356,232 450,274 536,300 596,318"/>
      <polyline points="612,0 606,74 592,156 592,232 596,318"/>
      <polyline points="1180,418 1042,406 924,386 806,354 700,332 596,318"/>
      <polyline points="1180,178 1032,202 902,250 778,294 680,314 596,318"/>
      <polyline points="252,720 306,628 382,532 468,448 540,360 596,318"/>
    </g>
    <g stroke="#f5e2b1" stroke-width="28">
      <polyline points="0,504 118,488 232,438 340,404 458,386 540,354 596,318"/>
      <polyline points="0,285 132,270 252,242 356,232 450,274 536,300 596,318"/>
      <polyline points="612,0 606,74 592,156 592,232 596,318"/>
      <polyline points="1180,418 1042,406 924,386 806,354 700,332 596,318"/>
      <polyline points="1180,178 1032,202 902,250 778,294 680,314 596,318"/>
      <polyline points="252,720 306,628 382,532 468,448 540,360 596,318"/>
    </g>
    <g stroke="#b8874c" stroke-width="4" stroke-dasharray="18 16">
      <polyline points="0,504 118,488 232,438 340,404 458,386 540,354 596,318"/>
      <polyline points="0,285 132,270 252,242 356,232 450,274 536,300 596,318"/>
      <polyline points="612,0 606,74 592,156 592,232 596,318"/>
      <polyline points="1180,418 1042,406 924,386 806,354 700,332 596,318"/>
      <polyline points="1180,178 1032,202 902,250 778,294 680,314 596,318"/>
      <polyline points="252,720 306,628 382,532 468,448 540,360 596,318"/>
    </g>
  </g>

  <g id="buildings" filter="url(#paperShadow3)" font-family="Microsoft YaHei, Noto Sans SC, sans-serif" font-weight="900" text-anchor="middle">
    <g transform="translate(104 380)">
      <rect x="0" y="18" width="244" height="104" rx="8" fill="#955337"/>
      <rect x="14" y="0" width="216" height="86" rx="8" fill="#cf7550"/>
      <rect x="42" y="-24" width="160" height="34" rx="6" fill="#ffe8bd"/>
      <text x="122" y="52" font-size="18" fill="#fff6e0">图书馆</text>
    </g>
    <g transform="translate(704 94)">
      <rect x="0" y="20" width="350" height="112" rx="8" fill="#914b34"/>
      <rect x="18" y="0" width="314" height="92" rx="8" fill="#d37b56"/>
      <rect x="54" y="-26" width="242" height="38" rx="6" fill="#ffe8bd"/>
      <text x="175" y="56" font-size="18" fill="#fff6e0">第一教学楼</text>
    </g>
    <g transform="translate(850 442)">
      <rect x="0" y="16" width="196" height="98" rx="8" fill="#b9995b"/>
      <rect x="14" y="0" width="168" height="78" rx="8" fill="#ead7aa"/>
      <text x="98" y="47" font-size="17" fill="#473b28">食堂</text>
    </g>
    <g transform="translate(806 316)">
      <rect x="0" y="18" width="166" height="110" rx="8" fill="#9ca99a"/>
      <rect x="12" y="0" width="142" height="90" rx="8" fill="#edf3ea"/>
      <text x="83" y="54" font-size="16" fill="#354236">少年班</text>
    </g>
    <g transform="translate(506 502)">
      <rect x="0" y="15" width="124" height="72" rx="8" fill="#843c35"/>
      <rect x="10" y="0" width="104" height="58" rx="8" fill="#bc5a4f"/>
      <text x="62" y="36" font-size="14" fill="#fff6e0">教务处</text>
    </g>
    <g transform="translate(152 596)">
      <rect x="0" y="12" width="154" height="66" rx="8" fill="#a99870"/>
      <rect x="10" y="0" width="134" height="52" rx="8" fill="#e5d8b8"/>
      <text x="77" y="32" font-size="15" fill="#4b4231">校史馆</text>
    </g>
  </g>

  <g id="target" filter="url(#paperShadow3)" font-family="Microsoft YaHei, Noto Sans SC, sans-serif" text-anchor="middle" font-weight="900">
    <circle cx="596" cy="318" r="65" fill="#6b4a2b" opacity="0.22"/>
    <path d="M596 258 L648 298 L628 360 L564 360 L544 298 Z" fill="#fff2c7" stroke="#765333" stroke-width="6"/>
    <circle cx="596" cy="318" r="24" fill="#287a82"/>
    <text x="596" y="324" font-size="15" fill="#fff8df">核心</text>
  </g>

  <g id="tower-slots" fill="#fff6d8" stroke="#60472e" stroke-width="5">
    <circle cx="254" cy="386" r="19"/>
    <circle cx="316" cy="398" r="19"/>
    <circle cx="468" cy="332" r="19"/>
    <circle cx="646" cy="312" r="19"/>
    <circle cx="820" cy="390" r="19"/>
    <circle cx="918" cy="286" r="19"/>
    <circle cx="1000" cy="512" r="19"/>
    <circle cx="212" cy="604" r="19"/>
    <circle cx="360" cy="232" r="19"/>
    <circle cx="760" cy="514" r="19"/>
    <circle cx="1042" cy="338" r="19"/>
    <circle cx="530" cy="438" r="19"/>
  </g>

  <g id="towers" filter="url(#paperShadow3)">
    <g transform="translate(468 332)">
      <circle r="39" fill="#2f7180"/>
      <rect x="-16" y="-30" width="32" height="54" rx="8" fill="#1e4d5a"/>
      <path d="M0 -50 L27 -18 L0 -2 L-27 -18 Z" fill="#b7f4ff"/>
    </g>
    <g transform="translate(820 390)">
      <circle r="38" fill="#2f7a50"/>
      <rect x="-22" y="-22" width="44" height="44" rx="10" fill="#1f5d3b"/>
      <circle r="13" fill="#bcffd6"/>
    </g>
    <g transform="translate(530 438)">
      <circle r="44" fill="#7851a2"/>
      <rect x="-18" y="-30" width="36" height="58" rx="10" fill="#563680"/>
      <circle r="15" fill="#e7d5ff"/>
    </g>
  </g>

  <g id="attacks" fill="none" stroke-linecap="round">
    <path d="M468 332 C510 294 548 294 584 312" stroke="#2f7180" stroke-width="7"/>
    <path d="M820 390 C772 354 724 346 690 334" stroke="#2f7a50" stroke-width="7" stroke-dasharray="14 12"/>
    <circle cx="530" cy="438" r="82" stroke="#7851a2" stroke-width="5" opacity="0.6"/>
  </g>

  <g id="enemies" font-family="Microsoft YaHei, Noto Sans SC, sans-serif" text-anchor="middle" font-weight="900" filter="url(#paperShadow3)">
    <g transform="translate(426 392)">
      <circle r="27" fill="#f0833b" stroke="#7b3a16" stroke-width="4"/>
      <text y="5" font-size="13" fill="#fff5dc">题</text>
    </g>
    <g transform="translate(732 340)">
      <circle r="28" fill="#d94a52" stroke="#7e1d27" stroke-width="4"/>
      <text y="5" font-size="11" fill="#fff1f0">DDL</text>
    </g>
    <g transform="translate(598 224)">
      <circle r="32" fill="#2f8b77" stroke="#144b40" stroke-width="5"/>
      <text y="5" font-size="13" fill="#e1fff6">盾</text>
    </g>
  </g>

  <g id="legend" font-family="Microsoft YaHei, Noto Sans SC, sans-serif">
    <rect x="42" y="42" width="286" height="78" rx="8" fill="#fff4d8" opacity="0.94" stroke="#765333" stroke-width="3"/>
    <text x="62" y="72" font-size="22" font-weight="900" fill="#3d2c1b">方案三：战棋校区</text>
    <text x="62" y="98" font-size="13" font-weight="700" fill="#6d5b42">桌游棋盘感 · 建筑厚重 · 怪物和塔像棋子</text>
  </g>
</svg>
